<svg width="256" height="256" viewBox="0 0 256 256" fill="none" xmlns="http://www.w3.org/2000/svg">
<rect width="256" height="256" fill="#0054E8"/>
<path d="M186.944 170.714C179.052 183.808 167.931 192.956 153.94 198.157C143.357 202.103 132.416 203.718 121.295 202.641C106.587 201.206 93.4935 195.108 82.5521 184.525C73.0456 175.019 67.1265 163.36 64.7948 149.907C61.9249 133.764 63.7186 118.16 71.252 103.81C77.7092 91.2545 87.2156 82.2861 99.5919 76.367C108.202 72.2416 117.17 70.2685 126.497 70.0892C127.753 70.0892 130.084 69.9098 130.443 68.6542C132.775 62.3764 134.389 56.4573 138.156 50.8969C138.694 50.1794 139.411 50.0001 140.129 50.1794L156.81 56.2779C157.886 56.6367 158.245 58.0716 157.707 58.9684C154.837 63.4526 142.281 72.0622 147.662 72.6003C151.429 72.959 153.402 73.6765 155.196 74.2146C164.164 77.0845 172.056 81.5687 178.693 88.564C184.074 94.4831 187.482 101.299 187.482 109.55C187.482 122.285 179.769 131.612 167.931 133.944C149.456 137.531 133.672 127.128 127.394 107.936C125.78 102.734 124.703 97.3529 124.524 91.9719C124.524 91.4338 124.345 91.0751 124.345 90.537C120.399 90.7164 116.811 91.4338 113.224 92.8688C100.309 97.7117 91.6998 107.218 87.7537 120.85C83.4489 135.379 84.8839 149.549 92.5966 162.643C98.6951 173.046 107.484 179.862 118.964 181.835C135.824 184.705 151.07 180.579 163.267 167.306M144.972 93.4069C142.819 94.3037 146.407 104.886 149.994 109.729C152.146 112.779 155.196 114.572 158.783 114.931C162.55 115.29 165.24 113.317 165.958 109.729C166.496 106.859 165.42 104.528 163.626 102.375C160.397 98.6085 156.093 96.4561 151.788 94.4831C151.967 94.6624 146.586 92.6894 144.972 93.4069Z" fill="white"/>
</svg>
